<svg width="24" height="24" viewBox="0 0 24 24" fill="none" xmlns="http://www.w3.org/2000/svg">
<path d="M9.25 14.6351L10.8215 16.3951L14.75 11.9951" stroke="#1C274C" stroke-width="2" stroke-linecap="round" stroke-linejoin="round"/>
<path d="M1 11.9943C1 6.80881 1 4.21609 2.61092 2.60518C3.97582 1.24027 6.04556 1.03183 9.8 1M23 11.9943C23 6.80881 23 4.21609 21.389 2.60518C20.0242 1.24027 17.9544 1.03183 14.2 1" stroke="#1C274C" stroke-width="2" stroke-linecap="round"/>
<path d="M9.8 22.9945C6.71971 22.9945 5.17957 22.9945 4.00306 22.395C2.96816 21.8677 2.12676 21.0263 1.59947 19.9915C1 18.8149 1 17.2748 1 14.1945C1 11.1141 1 9.57404 1.59947 8.39753C2.12676 7.36263 2.96816 6.52123 4.00306 5.99394C5.17957 5.39447 6.71971 5.39447 9.8 5.39447H14.2C17.2803 5.39447 18.8204 5.39447 19.997 5.99394C21.0319 6.52123 21.8733 7.36263 22.4005 8.39753C23 9.57404 23 11.1141 23 14.1945C23 17.2748 23 18.8149 22.4005 19.9915C21.8733 21.0263 21.0319 21.8677 19.997 22.395C18.8204 22.9945 17.2803 22.9945 14.2 22.9945" stroke="#1C274C" stroke-width="2" stroke-linecap="round"/>
</svg>
