<svg width="13" height="14" viewBox="0 0 13 14" fill="none" xmlns="http://www.w3.org/2000/svg">
<path d="M9.94893 1.82658L9.90308 4.30219C9.89653 4.64185 10.1127 5.09256 10.3878 5.29505L12.0122 6.52303C13.0537 7.30687 12.8834 8.26707 11.6389 8.65898L9.52316 9.31871C9.16945 9.42975 8.79609 9.81514 8.70439 10.1744L8.20002 12.0948C7.80046 13.6102 6.80483 13.7604 5.97951 12.4279L4.82665 10.5663C4.61704 10.2267 4.11923 9.97191 3.72622 9.9915L1.53845 10.1025C-0.0270471 10.1809 -0.472461 9.27952 0.54937 8.0907L1.84631 6.58835C2.08867 6.30748 2.20002 5.78492 2.08867 5.43222L1.42055 3.31587C1.03409 2.07479 1.72841 1.38894 2.96639 1.79392L4.8987 2.42752C5.22623 2.53203 5.7175 2.46018 5.99261 2.25769L8.01007 0.807593C9.10395 0.0302899 9.97513 0.487527 9.94893 1.82658Z" fill="#5044E5"/>
<path d="M12.6652 12.4933L10.6805 10.5141C10.4906 10.3247 10.1762 10.3247 9.98622 10.5141C9.79626 10.7036 9.79626 11.0171 9.98622 11.2065L11.9709 13.1857C12.0692 13.2837 12.1936 13.3294 12.3181 13.3294C12.4425 13.3294 12.567 13.2837 12.6652 13.1857C12.8552 12.9963 12.8552 12.6828 12.6652 12.4933Z" fill="#5044E5"/>
</svg>
