<svg width="53" height="41" viewBox="0 0 53 41" fill="none" xmlns="http://www.w3.org/2000/svg">
<path d="M38.2418 8.69089C38.2418 8.69089 38.8109 1.62554 31.7862 0.81985C25.7656 0.253362 23.9327 5.40913 23.9327 5.40913C23.9327 5.40913 22.1199 3.8026 19.6599 5.11498C17.4578 6.36756 17.8472 8.66099 17.8472 8.66099C17.8472 8.66099 12.957 9.53699 12.957 14.1303C13.0658 18.718 18.2664 18.764 18.2664 18.764H26.4672V13.9154H23.8362L28.2212 9.87478L32.6062 13.9154H29.9752V18.764H37.4007C37.4007 18.764 42.2418 18.7689 42.9214 14.4043C43.245 9.63153 38.2418 8.69089 38.2418 8.69089Z" fill="#BEC4D5"/>
<path d="M2.91191 25.7036V31.4366C2.91191 32.2426 3.10691 32.8406 3.49691 33.2306C3.89557 33.6206 4.44591 33.8156 5.14791 33.8156C5.84124 33.8156 6.38291 33.6206 6.77291 33.2306C7.17157 32.8406 7.37091 32.2426 7.37091 31.4366V25.7036H8.55391V31.4236C8.55391 32.1776 8.40224 32.8146 8.09891 33.3346C7.79557 33.846 7.38391 34.2273 6.86391 34.4786C6.35257 34.73 5.77624 34.8556 5.13491 34.8556C4.49357 34.8556 3.91291 34.73 3.39291 34.4786C2.88157 34.2273 2.47424 33.846 2.17091 33.3346C1.87624 32.8146 1.72891 32.1776 1.72891 31.4236V25.7036H2.91191ZM11.7104 28.9536C11.9444 28.5463 12.291 28.2083 12.7504 27.9396C13.2184 27.6623 13.76 27.5236 14.3754 27.5236C15.008 27.5236 15.58 27.6753 16.0914 27.9786C16.6114 28.282 17.0187 28.711 17.3134 29.2656C17.608 29.8116 17.7554 30.4486 17.7554 31.1766C17.7554 31.896 17.608 32.5373 17.3134 33.1006C17.0187 33.664 16.6114 34.1016 16.0914 34.4136C15.58 34.7256 15.008 34.8816 14.3754 34.8816C13.7687 34.8816 13.2314 34.7473 12.7634 34.4786C12.304 34.2013 11.953 33.859 11.7104 33.4516V38.1446H10.5274V27.6406H11.7104V28.9536ZM16.5464 31.1766C16.5464 30.6393 16.438 30.1713 16.2214 29.7726C16.0047 29.374 15.71 29.0706 15.3374 28.8626C14.9734 28.6546 14.5704 28.5506 14.1284 28.5506C13.695 28.5506 13.292 28.659 12.9194 28.8756C12.5554 29.0836 12.2607 29.3913 12.0354 29.7986C11.8187 30.1973 11.7104 30.661 11.7104 31.1896C11.7104 31.727 11.8187 32.1993 12.0354 32.6066C12.2607 33.0053 12.5554 33.313 12.9194 33.5296C13.292 33.7376 13.695 33.8416 14.1284 33.8416C14.5704 33.8416 14.9734 33.7376 15.3374 33.5296C15.71 33.313 16.0047 33.0053 16.2214 32.6066C16.438 32.1993 16.5464 31.7226 16.5464 31.1766ZM20.4955 25.1446V34.7646H19.3125V25.1446H20.4955ZM25.6187 34.8816C24.9514 34.8816 24.3447 34.73 23.7987 34.4266C23.2614 34.1233 22.8367 33.6943 22.5247 33.1396C22.2214 32.5763 22.0697 31.9263 22.0697 31.1896C22.0697 30.4616 22.2257 29.8203 22.5377 29.2656C22.8584 28.7023 23.2917 28.2733 23.8377 27.9786C24.3837 27.6753 24.9947 27.5236 25.6707 27.5236C26.3467 27.5236 26.9577 27.6753 27.5037 27.9786C28.0497 28.2733 28.4787 28.698 28.7907 29.2526C29.1114 29.8073 29.2717 30.453 29.2717 31.1896C29.2717 31.9263 29.1071 32.5763 28.7777 33.1396C28.4571 33.6943 28.0194 34.1233 27.4647 34.4266C26.9101 34.73 26.2947 34.8816 25.6187 34.8816ZM25.6187 33.8416C26.0434 33.8416 26.4421 33.742 26.8147 33.5426C27.1874 33.3433 27.4864 33.0443 27.7117 32.6456C27.9457 32.247 28.0627 31.7616 28.0627 31.1896C28.0627 30.6176 27.9501 30.1323 27.7247 29.7336C27.4994 29.335 27.2047 29.0403 26.8407 28.8496C26.4767 28.6503 26.0824 28.5506 25.6577 28.5506C25.2244 28.5506 24.8257 28.6503 24.4617 28.8496C24.1064 29.0403 23.8204 29.335 23.6037 29.7336C23.3871 30.1323 23.2787 30.6176 23.2787 31.1896C23.2787 31.7703 23.3827 32.26 23.5907 32.6586C23.8074 33.0573 24.0934 33.3563 24.4487 33.5556C24.8041 33.7463 25.1941 33.8416 25.6187 33.8416ZM30.3852 31.1766C30.3852 30.4486 30.5325 29.8116 30.8272 29.2656C31.1218 28.711 31.5248 28.282 32.0362 27.9786C32.5562 27.6753 33.1325 27.5236 33.7652 27.5236C34.3892 27.5236 34.9308 27.658 35.3902 27.9266C35.8495 28.1953 36.1918 28.5333 36.4172 28.9406V27.6406H37.6132V34.7646H36.4172V33.4386C36.1832 33.8546 35.8322 34.2013 35.3642 34.4786C34.9048 34.7473 34.3675 34.8816 33.7522 34.8816C33.1195 34.8816 32.5475 34.7256 32.0362 34.4136C31.5248 34.1016 31.1218 33.664 30.8272 33.1006C30.5325 32.5373 30.3852 31.896 30.3852 31.1766ZM36.4172 31.1896C36.4172 30.6523 36.3088 30.1843 36.0922 29.7856C35.8755 29.387 35.5808 29.0836 35.2082 28.8756C34.8442 28.659 34.4412 28.5506 33.9992 28.5506C33.5572 28.5506 33.1542 28.6546 32.7902 28.8626C32.4262 29.0706 32.1358 29.374 31.9192 29.7726C31.7025 30.1713 31.5942 30.6393 31.5942 31.1766C31.5942 31.7226 31.7025 32.1993 31.9192 32.6066C32.1358 33.0053 32.4262 33.313 32.7902 33.5296C33.1542 33.7376 33.5572 33.8416 33.9992 33.8416C34.4412 33.8416 34.8442 33.7376 35.2082 33.5296C35.5808 33.313 35.8755 33.0053 36.0922 32.6066C36.3088 32.1993 36.4172 31.727 36.4172 31.1896ZM39.1703 31.1766C39.1703 30.4486 39.3177 29.8116 39.6123 29.2656C39.907 28.711 40.31 28.282 40.8213 27.9786C41.3413 27.6753 41.922 27.5236 42.5633 27.5236C43.118 27.5236 43.6337 27.6536 44.1103 27.9136C44.587 28.165 44.951 28.4986 45.2023 28.9146V25.1446H46.3983V34.7646H45.2023V33.4256C44.9683 33.8503 44.6217 34.2013 44.1623 34.4786C43.703 34.7473 43.1657 34.8816 42.5503 34.8816C41.9177 34.8816 41.3413 34.7256 40.8213 34.4136C40.31 34.1016 39.907 33.664 39.6123 33.1006C39.3177 32.5373 39.1703 31.896 39.1703 31.1766ZM45.2023 31.1896C45.2023 30.6523 45.094 30.1843 44.8773 29.7856C44.6607 29.387 44.366 29.0836 43.9933 28.8756C43.6293 28.659 43.2263 28.5506 42.7843 28.5506C42.3423 28.5506 41.9393 28.6546 41.5753 28.8626C41.2113 29.0706 40.921 29.374 40.7043 29.7726C40.4877 30.1713 40.3793 30.6393 40.3793 31.1766C40.3793 31.7226 40.4877 32.1993 40.7043 32.6066C40.921 33.0053 41.2113 33.313 41.5753 33.5296C41.9393 33.7376 42.3423 33.8416 42.7843 33.8416C43.2263 33.8416 43.6293 33.7376 43.9933 33.5296C44.366 33.313 44.6607 33.0053 44.8773 32.6066C45.094 32.1993 45.2023 31.727 45.2023 31.1896Z" fill="#7B7B7B"/>
</svg>
